<?xml version="1.0" encoding="UTF-8" standalone="no"?>
<!-- Created with Inkscape (http://www.inkscape.org/) -->

<svg
   xmlns:dc="http://purl.org/dc/elements/1.1/"
   xmlns:cc="http://creativecommons.org/ns#"
   xmlns:rdf="http://www.w3.org/1999/02/22-rdf-syntax-ns#"
   xmlns:svg="http://www.w3.org/2000/svg"
   xmlns="http://www.w3.org/2000/svg"
   xmlns:sodipodi="http://sodipodi.sourceforge.net/DTD/sodipodi-0.dtd"
   xmlns:inkscape="http://www.inkscape.org/namespaces/inkscape"
   width="110.99812"
   height="112.41547"
   viewBox="0 0 110.99813 112.41547"
   id="svg2"
   version="1.1"
   inkscape:version="0.91 r13725"
   sodipodi:docname="logo.svg">
  <defs
     id="defs4">
    <clipPath
       clipPathUnits="userSpaceOnUse"
       id="clipPath4202">
      <ellipse
         style="opacity:0.344;fill:#000000;fill-opacity:1;fill-rule:nonzero;stroke:#ffffff;stroke-width:1.60000002;stroke-linecap:square;stroke-linejoin:round;stroke-miterlimit:4;stroke-dasharray:none;stroke-opacity:1"
         id="ellipse4204"
         cx="509.99997"
         cy="1069.505"
         rx="291.42856"
         ry="297.14285" />
    </clipPath>
  </defs>
  <sodipodi:namedview
     id="base"
     pagecolor="#ffffff"
     bordercolor="#666666"
     borderopacity="1.0"
     inkscape:pageopacity="0.0"
     inkscape:pageshadow="2"
     inkscape:zoom="0.47843386"
     inkscape:cx="178.44005"
     inkscape:cy="511.94091"
     inkscape:document-units="px"
     inkscape:current-layer="layer1"
     showgrid="false"
     fit-margin-top="0"
     fit-margin-left="0"
     fit-margin-right="0"
     fit-margin-bottom="0"
     units="px"
     inkscape:window-width="1920"
     inkscape:window-height="1017"
     inkscape:window-x="1272"
     inkscape:window-y="-8"
     inkscape:window-maximized="1" />
  <metadata
     id="metadata7">
    <rdf:RDF>
      <cc:Work
         rdf:about="">
        <dc:format>image/svg+xml</dc:format>
        <dc:type
           rdf:resource="http://purl.org/dc/dcmitype/StillImage" />
        <dc:title></dc:title>
      </cc:Work>
    </rdf:RDF>
  </metadata>
  <g
     inkscape:label="Layer 1"
     inkscape:groupmode="layer"
     id="layer1"
     transform="translate(-52.946491,-565.29073)">
    <g
       id="g4217"
       transform="matrix(0.1875,0,0,0.1875,46.154254,452.66036)">
      <path
         style="fill:#c8a26f"
         d="M 320.89292,1199.964 C 218.59618,1202.6099 126.26329,1133.8238 80.101443,1045.7036 27.396204,949.88204 20.019395,822.04259 86.499384,730.80739 130.5135,670.71942 196.37869,626.55052 270.17267,613.50388 c 111.31747,-22.2286 239.67023,16.44102 304.30224,113.6044 47.11016,71.92157 61.7571,163.40002 39.50029,246.46777 -25.39847,104.05805 -105.66286,200.20275 -213.97338,221.35985 -25.98376,4.9923 -52.70547,5.8691 -79.1089,5.0281 z"
         id="path4235"
         inkscape:connector-curvature="0" />
      <path
         style="fill:#9ba290"
         d="m 325.26335,1200.0282 1.61778,4e-4 -1.61778,-4e-4 z m 6.47457,0 0.98628,0 -0.98628,0 z m 4.545,-0.051 c 4.29048,0.012 4.96116,0.014 0,0 z m -16.515,-0.1271 0.80514,0 -0.80514,0 z m 24.57342,0 0.53025,0.016 -0.53025,-0.016 z m -28.08342,-0.1883 c 2.99805,4e-4 1.51862,2e-4 0,0 z m 15.57,0.01 0.80514,0 -0.80514,0 z m 15.12,0 1.52794,4e-4 -1.52794,-4e-4 z m -33.93,-0.1794 1.34753,5e-4 -1.34753,-5e-4 z m 21.95503,-0.079 c 3.79444,-0.2157 7.61535,-0.4329 0,0 z m 15.39497,0.08 1.167,7e-4 -1.167,-7e-4 z m -39.96402,-0.1796 1.2569,7e-4 -1.2569,-7e-4 z m 42.48402,0 1.16708,8e-4 -1.16708,-8e-4 z m -44.64001,-0.1769 0.80514,0 -0.80514,0 z m 47.07001,0 0.98628,0 -0.98628,0 z m -49.13754,-0.1803 0.89484,0 -0.89484,0 z m 51.3,0 0.89484,0 -0.89484,0 z m -53.19247,-0.1778 0.80514,0 -0.80514,0 z m 54.99001,0 0.98628,0 -0.98628,0 z m -56.87754,-0.1802 0.89484,0 -0.89484,0 z m 58.86,0 0.89484,0 -0.89484,0 z m -60.39036,-0.1782 0.71301,0 -0.71301,0 z m 62.0979,0 0.80514,0 -0.80514,0 z m -63.80754,-0.1821 0.89484,0 -0.89484,0 z m 65.42754,0 0.80514,0 -0.80514,0 z m -66.86659,-0.1777 0.53025,0.016 -0.53025,-0.016 z m 68.48869,0 0.71301,0 -0.71301,0 z m -70.02,-0.18 0.71301,0 -0.71301,0 z m 71.5479,0 0.62325,0 -0.62325,0 z m -72.9879,-0.1832 0.71301,0 -0.71301,0 z m 74.4279,0 0.62325,0 -0.62325,0 z m -75.78001,-0.18 0.62325,0 -0.62325,0 z m 77.04001,0 0.62325,0 -0.62325,0 z m -78.30001,-0.18 0.62325,0 -0.62325,0 z m 79.74001,0 0.62325,0 -0.62325,0 z m -80.99659,-0.1806 0.53025,0.016 -0.53025,-0.016 z m 82.34659,0.01 0.43913,0.01 -0.43913,-0.01 z m -84.37501,-0.2408 0.94445,0.012 -0.94445,-0.012 z m 85.36501,0.056 0.62325,0 -0.62325,0 z m 1.665,-0.2463 0.85788,0 -0.85788,0 z m -88.60501,-0.1137 0.62325,0 -0.62325,0 z m -1.17,-0.1751 0.43913,0.01 -0.43913,-0.01 z m 92.56501,-0.1639 0.7628,6e-4 -0.7628,-6e-4 z m -93.64501,-0.016 0.43913,0.01 -0.43913,-0.01 z m -1.06875,-0.1837 0.32505,0.033 -0.32505,-0.033 z m -1.09125,-0.1763 0.43913,0.01 -0.43913,-0.01 z m 99.04501,-0.1638 0.67694,0.01 -0.67694,-0.01 z m -99.93376,-0.02 0.32505,0.033 -0.32505,-0.033 z m -1.08,-0.18 0.32505,0.033 -0.32505,-0.033 z m -0.9,-0.18 0.32505,0.033 -0.32505,-0.033 z m 104.12218,0 0.53025,0.016 -0.53025,-0.016 z m -105.21343,-0.1745 0.43913,0.01 -0.43913,-0.01 z m 106.42501,-0.061 0.77111,-0.022 -0.77111,0.022 z m -107.32501,-0.1192 0.43913,0.01 -0.43913,-0.01 z m -0.9,-0.18 0.43913,0.01 -0.43913,-0.01 z m 109.99126,0 0.32501,0.033 -0.32501,-0.033 z m -110.88001,-0.18 0.32505,0.033 -0.32505,-0.033 z m 111.76876,0 0.43913,0.01 -0.43913,-0.01 z m -112.66876,-0.1838 0.32505,0.033 -0.32505,-0.033 z m 113.58001,0 0.32501,0.033 -0.32501,-0.033 z m -114.48001,-0.18 0.32505,0.033 -0.32505,-0.033 z m -0.9,-0.18 0.32505,0.033 -0.32505,-0.033 z m -0.9,-0.18 0.32505,0.033 -0.32505,-0.033 z m -1.62,-0.36 0.32505,0.033 -0.32505,-0.033 z m 127.80001,-1.26 0.32505,0.033 -0.32505,-0.033 z m 0.72,-0.18 0.32505,0.033 -0.32505,-0.033 z m 0.72,-0.18 0.32505,0.033 -0.32505,-0.033 z m 0.72,-0.18 0.32505,0.033 -0.32505,-0.033 z m 1.44,-0.36 0.32505,0.033 -0.32505,-0.033 z m 0.72,-0.18 0.32505,0.033 -0.32505,-0.033 z m 55.1173,-20.3113 c -115.00401,-6.8628 -238.28154,-16.5763 -334.80355,-86.2191 -33.1147,-23.8813 -62.757743,-54.8292 -73.985843,-95.11658 -38.144713,-110.4142 10.24356,-234.91864 93.907873,-310.98095 68.73088,-65.10756 172.64701,-97.79742 264.02582,-65.01651 152.2774,41.34083 251.69752,216.47416 212.11355,368.63252 -13.23948,48.92092 -42.31002,93.63992 -80.55786,126.54752 -52.04511,37.0718 -118.74583,20.827 -177.60817,16.817 -21.60264,-1.0187 -70.56361,-3.7651 -73.39506,12.5176 49.72153,38.1096 120.30698,-4.8263 170.30324,32.8185 z m 2.20145,-45.8416 c -8.18963,-31.9986 -34.73194,10.3042 -9.97758,8.3859 3.89959,-2.0538 7.04319,-5.1737 9.97758,-8.3859 z m 15.23186,-0.8548 c -1.13444,-7.0006 -2.20455,6.5723 0,0 z m -2.85686,-0.1893 -0.62006,-0.01 0.62006,0.01 z m -88.88524,-1.5411 c 21.71093,-13.2949 -1.30318,-11.1991 0,0 z m 114.50158,-2.4344 c -14.43997,-40.0122 -19.15251,34.592 0,0 z m -135.45418,-0.1526 c 21.79915,10.7545 9.3886,-7.41 -3.2957,-4.606 l 3.2957,4.606 z m -144.23217,-14.3342 c 19.83798,14.2146 65.04317,7.8855 42.68283,-23.3859 -19.47264,-31.663 -45.39429,-3.914 -42.68283,23.3859 z m 45.9,-376.99772 c 12.44144,-9.74178 -6.16773,-6.25721 -4.08441,0.47875 l 4.08441,-0.47875 z m -50.4615,441.38212 c -2.64878,-19.4363 8.97257,12.7847 0,0 z m 140.37516,-24.8174 c -14.97054,-21.0988 12.10109,5.142 0,0 z m -232.67077,-36.4497 0.10995,0.034 -0.10995,-0.034 z"
         id="path4233"
         inkscape:connector-curvature="0" />
      <path
         style="fill:#6486a7"
         d="m 331.73792,1200.0318 0.98628,0 -0.98628,0 z m 5.04979,-0.1855 c 4.79706,0 3.44658,0 0,0 z m -4.95979,-0.1726 0.80514,0 -0.80514,0 z m 3.14503,-0.263 c 3.79444,-0.2157 7.61535,-0.4329 0,0 z m 120.49197,-28.5379 C 342.84808,1164.5933 223.13306,1153.9472 127.8378,1087.3446 93.592562,1061.9203 59.652921,1030.6982 48.923413,987.71221 11.110867,869.98705 66.423267,738.04461 160.49139,663.33641 225.49028,609.75093 315.82287,586.5355 397.66051,609.9924 c 127.28964,29.55932 217.88833,153.23196 229.02743,280.28735 7.2641,72.50472 -16.78467,147.88745 -67.95046,200.33865 -35.40525,43.4692 -96.70254,43.7341 -147.72382,38.8912 -38.51467,-1.793 -80.41538,-12.3861 -116.64747,5.639 -8.04368,19.8043 40.06397,24.8233 58.20986,21.3531 33.76742,-1.5478 76.51955,-14.0946 102.88887,14.3711 z m 3.938,-45.8483 c -5.25524,-32.0355 -43.11881,-0.5998 -19.19777,10.3393 7.49598,-0.7857 13.54811,-5.828 19.19777,-10.3393 z m -75.00532,-1.483 c 22.57456,-2.4746 -0.80606,-12.1606 -5.67081,-2.6322 l 5.67081,2.6322 z m 116.68524,-3.1479 c -14.99628,-39.3417 -18.48204,32.3128 0,0 z m -138.10776,-0.5042 c 21.75452,22.017 3.56672,-20.957 0,0 z m 90.22967,-2.895 c 4.84688,-12.6329 -9.14704,8.5263 0,0 z m -101.76322,-2.2602 -0.60983,-1.3577 0.60983,1.3577 z m 157.85385,0.9161 c 11.2342,11.4172 -2.56142,-10.3634 0,0 z m -129.54246,-7.8096 -0.39224,-1.1762 0.39224,1.1762 z m -28.41664,-1.1486 -0.23537,0.7814 0.23537,-0.7814 z m -132.59337,-1.1336 c 20.4017,18.024 63.05855,7.1427 48.80047,-24.9348 -12.56316,-33.8016 -53.65752,-14.745 -68.27608,6.4421 -1.55657,10.1862 10.045,19.0543 19.47561,18.4927 z m 159.03001,0.2029 -0.35199,-0.1036 0.35199,0.1036 z m -1.95457,-2.6437 -0.53923,-0.7207 0.53923,0.7207 z m -23.37249,-0.6479 c 5.3257,11.3434 1.33113,-9.0351 0,0 z m 11.10456,-1.0843 c 18.00394,6.6853 -0.49161,-9.5892 0,0 z m -9.87725,-4.1164 c 15.37786,-2.4801 -12.18684,-4.9122 0,0 z m 14.07134,-4.6534 c 16.11992,12.0851 -5.41075,-10.7652 0,0 z m -3.29159,-4.5094 c 11.84907,-0.3499 -6.94616,-4.0787 0,0 z m -3.22013,-5.1777 0.002,0.5207 -0.002,-0.5207 z m -1.46624,-1.1628 c 6.85221,7.3299 -4.885,-0.8434 -0.39258,-2.4304 l 0.39258,2.4304 z m 27.27637,-4.6189 c 1.61133,-23.2082 -14.26681,15.3207 0,0 z m -32.41001,-24.5411 -0.16877,0.5285 0.16877,-0.5285 z m 155.6086,-1.62 -0.12042,0.5339 0.12042,-0.5339 z m -176.75457,-11.025 c 19.80363,6.7296 -9.52403,-15.5012 0,0 z m 122.55191,-10.7569 c 3.08726,8.9945 2.87782,-5.1838 0,0 z m -19.24375,-12.8034 c 14.82863,-26.02627 -25.18372,8.0313 0,0 z m 45.02907,-11.5522 c 17.59522,-21.84819 -22.14291,-0.5216 -4.68979,1.1376 l 4.68979,-1.1376 z m -138.32351,1.3558 c 17.59541,-14.84839 -20.20107,0.9494 0,0 z m 251.8893,-4.7183 c 25.6063,-5.09803 -13.58986,-4.89941 0,0 z m -83.87703,-74.2551 c 16.80023,-18.01584 -20.24967,4.24958 0,0 z m -179.05604,-1.38588 c 14.9151,-5.19182 -1.86979,-8.10745 -3.56135,-0.75683 l 3.56135,0.75683 z m -213.05523,-27.1353 -0.10022,0.3537 0.10022,-0.3537 z m -0.038,-1.77347 c 10.66653,-15.17698 -24.301221,-23.70594 -4.65806,-4.69731 l 4.65806,4.69731 z M 465.70312,892.16 c 12.78375,-0.65462 -3.23035,3.44304 -3.51777,-1.87317 l 3.51777,1.87317 z M 341.62811,876.08413 c 6.32584,9.38389 29.71228,25.03591 13.12688,3.85138 -3.54843,-7.9442 -23.30703,-24.63828 -13.12688,-3.85138 z m 19.48406,-12.93644 -0.0784,-1.29013 0.0784,1.29013 z m -46.14743,-6.43325 c 13.97406,-16.98107 -15.32456,8.09055 0,0 z m 47.4209,-25.00313 c 39.79445,4.77487 -10.01524,-14.48381 0,0 z M 116.18972,813.60277 c 5.45194,19.38025 6.17688,-15.76461 0,0 z m 274.20201,-12.429 c 20.90618,-21.08521 -22.27404,-3.04572 -4.89066,0.74388 l 4.89066,-0.74388 z M 269.48945,775.94596 c 8.41481,25.03188 11.01065,-15.99981 1.27273,-4.12089 l -1.27273,4.12089 z m 139.96347,-3.73404 c 11.41112,0.60735 0.83118,-6.20644 -2.12467,-1.55224 l 2.12467,1.55224 z m -138.1681,-33.11941 c 20.70071,-29.1059 -30.93025,-1.93074 -6.42675,1.2239 l 6.42675,-1.2239 z m 44.87345,-33.79673 c 11.06566,-11.4844 -4.26993,-7.56029 -4.83287,0.57763 l 0.73654,0.3953 4.09633,-0.97293 z m -53.03539,-9.32034 c 13.79413,-16.16494 -16.31993,5.02133 0,0 z m 79.54764,-19.04458 c 15.68801,-7.47272 -6.24713,-5.40232 0,0 z m -7.02036,-13.74446 -0.26749,0.31265 0.26749,-0.31265 z m -121.46875,506.7565 c -2.64878,-19.4363 8.97257,12.7847 0,0 z m 140.37516,-24.8174 c -14.97054,-21.0988 12.10109,5.142 0,0 z"
         id="path4231"
         inkscape:connector-curvature="0" />
      <path
         style="fill:#728771"
         d="m 331.73792,1200.0318 0.98628,0 -0.98628,0 z m 5.04979,-0.1855 c 4.79706,0 3.44658,0 0,0 z m -4.95979,-0.1726 0.80514,0 -0.80514,0 z m 3.14503,-0.263 c 3.79444,-0.2157 7.61535,-0.4329 0,0 z m 120.49197,-28.5379 C 342.12016,1171.1542 221.17999,1151.613 131.56966,1076.8312 75.58991,1028.1393 31.866753,957.30193 36.607538,880.76326 43.295969,763.71865 130.73549,658.72288 240.31324,621.26716 c 51.82953,-17.3616 108.29792,-24.79347 161.79002,-10.26899 99.02644,24.35646 182.09439,104.88009 207.91478,203.77569 30.19587,95.26187 14.49698,211.78024 -60.16989,282.72654 -28.90537,26.3872 -68.08496,48.3254 -108.32621,38.2465 -43.99085,-6.4032 -87.7146,-31.7123 -132.63903,-18.0975 -19.38864,6.3243 -42.10379,34.4653 -7.11676,32.2195 50.93601,8.9249 106.69163,-6.1633 153.69877,21.0039 z m 3.938,-45.8483 c -5.25524,-32.0355 -43.11881,-0.5998 -19.19777,10.3393 7.49598,-0.7857 13.54811,-5.828 19.19777,-10.3393 z m -75.00532,-1.483 c 22.57456,-2.4746 -0.80606,-12.1606 -5.67081,-2.6322 l 5.67081,2.6322 z m 116.68524,-3.1479 c -14.99628,-39.3417 -18.48204,32.3128 0,0 z m -138.10776,-0.5042 c 21.75452,22.017 3.56672,-20.957 0,0 z m 90.22967,-2.895 c 4.84688,-12.6329 -9.14704,8.5263 0,0 z m -101.76322,-2.2602 -0.60983,-1.3577 0.60983,1.3577 z m 157.85385,0.9161 c 11.2342,11.4172 -2.56142,-10.3634 0,0 z m -129.54246,-7.8096 -0.39224,-1.1762 0.39224,1.1762 z m -28.41664,-1.1486 -0.23537,0.7814 0.23537,-0.7814 z m -132.59337,-1.1336 c 22.86386,21.3468 62.23092,20.6614 81.2262,-5.3825 23.92881,-27.5147 30.14865,-80.0329 -5.37371,-100.92435 -30.85629,-13.77094 -71.12392,-9.95133 -97.54252,11.76335 -26.77617,18.7406 -42.06018,67.9493 -6.46942,86.009 8.68031,4.7569 18.41153,7.2111 28.15945,8.5345 z m 128.07001,-31.8519 c -5.07392,-12.8083 7.79847,6.3747 0,0 z m -11.51045,-23.7443 0.29434,-0.5765 -0.29434,0.5765 z m 42.47045,55.7991 -0.35199,-0.1036 0.35199,0.1036 z m -1.95457,-2.6437 -0.53923,-0.7207 0.53923,0.7207 z m -23.37249,-0.6479 c 5.3257,11.3434 1.33113,-9.0351 0,0 z m 11.10456,-1.0843 c 18.00394,6.6853 -0.49161,-9.5892 0,0 z m -9.87725,-4.1164 c 15.37786,-2.4801 -12.18684,-4.9122 0,0 z m 14.07134,-4.6534 c 16.11992,12.0851 -5.41075,-10.7652 0,0 z m -3.29159,-4.5094 c 11.84907,-0.3499 -6.94616,-4.0787 0,0 z m -3.22013,-5.1777 0.002,0.5207 -0.002,-0.5207 z m -1.46624,-1.1628 c 6.85221,7.3299 -4.885,-0.8434 -0.39258,-2.4304 l 0.39258,2.4304 z m 27.27637,-4.6189 c 16.34535,4.6787 32.62249,-0.9892 6.6305,-5.599 -7.93202,-3.9479 -22.21585,-0.7975 -6.6305,5.599 z m -13.97284,-8.8811 c 20.30807,-15.7264 -23.60249,-3.096 0,0 z m 34.89993,-2.25 c 23.57045,-7.0797 16.96161,-34.3294 -7.84322,-25.6074 -24.23574,3.4814 -3.60585,22.1595 7.84322,25.6074 z m -51.77862,-4.14 c 10.22541,-21.2083 -22.03296,5.8557 0,0 z m -4.79848,-16.775 0.085,-0.4811 -0.085,0.4811 z m 158.8486,5.885 -0.12042,0.5339 0.12042,-0.5339 z m -143.12484,-15.0374 c 7.98855,22.1338 8.26565,-15.5525 0,0 z m 88.92461,-6.7631 c 8.12122,8.9633 2.22224,-7.2932 0,0 z m -19.24618,-12.7848 c 15.84478,-18.55553 -19.59409,-1.7158 -4.16046,0.7254 l 4.16046,-0.7254 z m -38.32637,-3.2519 c -1.48615,-20.22514 -6.1201,12.029 0,0 z m -80.45581,-0.8178 c -9.39514,-15.73806 -0.19425,16.3531 0,0 z m 95.94,-0.36 c -10.71948,-6.9664 5.72544,11.8407 0,0 z m -89.35757,-1.7302 -0.4879,-0.235 0.4879,0.235 z m 38.36265,-3.4597 c -0.5145,9.0298 7.13428,-8.99605 0,0 z m 118.86617,-1.9326 c 17.59522,-21.84819 -22.14291,-0.5216 -4.68979,1.1376 l 4.68979,-1.1376 z m -138.32351,1.3558 c 17.59541,-14.84839 -20.20107,0.9494 0,0 z m -137.49719,-1.0956 c -1.25888,-14.29402 -5.0259,11.2758 0,0 z m 203.25201,-1.7567 -1.09923,0.6151 1.09923,-0.6151 z m 186.13448,-1.866 c 25.6063,-5.09803 -13.58986,-4.89941 0,0 z m -214.73704,-2.48565 -0.37833,0.25465 0.37833,-0.25465 z m -285.122473,-14.715 0.574294,-1.47241 -0.574294,1.47241 z m 8.356853,-54.41329 c 7.64623,14.40466 1.80382,-13.16199 0,0 z m 407.62563,-2.64116 c 16.80023,-18.01584 -20.24967,4.24958 0,0 z m -179.05604,-1.38588 c 14.9151,-5.19182 -1.86979,-8.10745 -3.56135,-0.75683 l 3.56135,0.75683 z m -6.16397,-6.04467 -0.33775,0.0951 0.33775,-0.0951 z m -206.89126,-21.09063 -0.10022,0.3537 0.10022,-0.3537 z m -0.038,-1.77347 c 9.099,-27.69105 -26.276167,-21.88449 0,0 z M 465.70312,892.16 c 15.50646,2.07235 -0.47603,-9.00639 -3.28508,-2.69859 l 3.28508,2.69859 z m -323.19021,-12.50422 -0.4236,0.11417 0.4236,-0.11417 z m 199.1152,-3.57165 c 6.32584,9.38389 29.71228,25.03591 13.12688,3.85138 -3.54843,-7.9442 -23.30703,-24.63828 -13.12688,-3.85138 z m 19.48406,-12.93644 -0.0784,-1.29013 0.0784,1.29013 z m -46.14743,-6.43325 c 13.97406,-16.98107 -15.32456,8.09055 0,0 z m 47.4209,-25.00313 c 39.79445,4.77487 -10.01524,-14.48381 0,0 z M 116.18972,813.60277 c 5.45194,19.38025 6.17688,-15.76461 0,0 z m 9.58319,-11.33199 c -13.32795,2.48605 12.57375,6.8528 0,0 z m 264.61882,-1.09701 c 20.90618,-21.08521 -22.27404,-3.04572 -4.89066,0.74388 l 4.89066,-0.74388 z M 269.48945,775.94596 c 8.38073,25.04989 11.03906,-15.96432 1.27806,-4.11661 l -1.27806,4.11661 z m 139.96347,-3.73404 c 11.41112,0.60735 0.83118,-6.20644 -2.12467,-1.55224 l 2.12467,1.55224 z m -138.1681,-33.11941 c 20.03453,-25.17198 -20.34067,-13.81918 -10.05589,0.84225 l 4.00751,0.16582 6.04838,-1.00807 z m 44.87345,-33.79673 c 10.98695,-11.66408 -4.52451,-7.3597 -4.92434,0.69168 l 0.76207,0.37281 4.16227,-1.06449 z m -53.03539,-9.32034 c 14.68058,-13.99955 -16.44649,2.88037 0,0 z m 79.54764,-19.04458 c 15.68801,-7.47272 -6.24713,-5.40232 0,0 z m -7.02036,-13.74446 -0.26749,0.31265 0.26749,-0.31265 z m -121.46875,506.7565 c -2.64878,-19.4363 8.97257,12.7847 0,0 z m 140.37516,-24.8174 c -14.97054,-21.0988 12.10109,5.142 0,0 z M 62.588055,1014.5358 c -2.262365,-2.1069 -1.479007,-1.3774 0,0 z"
         id="path4229"
         inkscape:connector-curvature="0" />
      <path
         style="fill:#8b7547"
         d="m 331.73792,1200.0318 0.98628,0 -0.98628,0 z m 5.04979,-0.1855 c 4.79706,0 3.44658,0 0,0 z m -4.95979,-0.1726 0.80514,0 -0.80514,0 z m 3.14503,-0.263 c 3.79444,-0.2157 7.61535,-0.4329 0,0 z m 120.49197,-28.5379 C 340.45587,1173.4933 218.26379,1149.1181 128.20124,1073.4264 73.370957,1026.8005 33.230674,957.85965 37.264325,884.08207 41.996291,755.92251 144.65634,644.52797 265.90639,611.98422 c 68.0979,-18.96179 142.06624,-5.71985 204.20551,25.92863 132.00544,71.62946 189.66458,253.15861 121.4661,387.34935 -21.389,62.5694 -84.39432,116.8574 -153.21415,109.3078 -35.82402,-4.8467 -67.1914,-30.8547 -80.62572,-63.9763 -28.66642,-43.6193 -83.28503,-71.79731 -135.63306,-65.56 -28.62012,2.6079 -45.75846,32.8532 -39.24539,59.6068 -1.31234,33.686 31.89028,46.3201 57.21199,58.5962 65.48871,29.0948 138.56417,29.4804 207.43365,44.687 2.6532,0.983 5.3064,1.9661 7.9596,2.9491 z m 8.348,-45.8672 c -22.45516,-36.2358 -30.13852,31.4335 0,0 z m 47.06653,-2.9474 c 14.20117,-3.7657 37.00724,-29.8006 7.15089,-22.6374 -16.8154,1.0406 -32.97644,17.6099 -7.15089,22.6374 z m -6.41597,-3.6658 c -8.67712,8.8131 -1.1332,-7.0698 0,0 z m -2.98556,-0.3172 c -3.75112,-5.1137 5.28581,2.9356 0,0 z m -138.50284,1.8138 c 16.55189,13.4431 10.61332,-8.9385 -0.96264,-5.4785 l 0.96264,5.4785 z m 158.16173,-0.1966 c -2.56168,22.9106 11.5131,-7.5433 0,0 z m -66.98872,-2.3068 c 10.28117,-11.0088 -6.69987,-4.8933 -3.77338,1.082 l 3.77338,-1.082 z m -92.22601,-14.9639 c 19.14612,11.7937 0.0254,-11.3515 0,0 z m 180.65453,-10.8814 c 13.47977,-18.0655 -21.45346,-3.0149 0,0 z M 407.9739,1078.1998 c 7.61268,-30.5868 -24.38149,-16.2246 -18.73432,4.7397 5.58556,5.216 13.58091,-2.0992 18.73432,-4.7397 z m -32.70181,-5.66 c 22.36574,-23.16 -28.41769,-1.5707 0,0 z m 32.69792,-6.524 c 29.029,-4.359 24.12782,-36.8038 -4.61845,-32.714 -29.52873,0.01 -7.01175,25.4107 4.61845,32.714 z m -50.95835,-3.015 c 19.77464,-18.8108 -23.4839,-29.2946 -10.22321,-7.7124 2.93555,3.1536 6.5282,5.5618 10.22321,7.7124 z m 113.91126,-21.0337 c 35.3151,-5.4556 -0.43184,-40.4837 -13.14389,-17.209 1.55365,7.3986 7.88877,12.3782 13.14389,17.209 z m -103.80625,-6.0187 c 7.98855,22.1338 8.26565,-15.5525 0,0 z m -245.74269,-9.2537 -0.33488,0.2472 0.33488,-0.2472 z m -1.97343,-4.8429 -0.0119,1.0113 0.0119,-1.0113 z m -1.0104,-2.546 -0.0521,-1.0254 0.0521,1.0254 z m -1.52681,-2.25 c 11.13642,-2.9615 -9.21175,-3.3423 0,0 z m 281.60539,-3.9072 c -1.48615,-20.22514 -6.1201,12.029 0,0 z m -80.45581,-0.8178 c -9.39514,-15.73806 -0.19425,16.3531 0,0 z m 95.94,-0.36 c -10.71948,-6.9664 5.72544,11.8407 0,0 z m -89.35757,-1.7302 -0.4879,-0.235 0.4879,0.235 z m -222.5373,-1.7552 c 11.44035,-14.38751 -14.901058,5.4117 0,0 z m 260.86316,-1.2514 c 5.00526,16.0687 1.02298,-11.29816 0,0 z m -34.26502,-2.5982 c 29.64983,-13.27212 -20.9896,-13.05524 -5.1789,-1.3565 l 5.1789,1.3565 z m -122.65272,0.4727 c -1.25888,-14.29402 -5.0259,11.2758 0,0 z m 203.25201,-1.7567 -1.09923,0.6151 1.09923,-0.6151 z m 41.93107,-0.3847 c 7.24779,-27.49755 -20.28121,8.1703 -3.77015,2.943 l 3.77015,-2.943 z m -70.53363,-3.96695 -0.37833,0.25465 0.37833,-0.25465 z m -281.382775,-5.22729 0.892395,-1.26294 -0.892395,1.26294 z m -3.739698,-9.48771 0.574294,-1.47241 -0.574294,1.47241 z m 8.349463,-12.76938 c 21.52052,-8.15709 28.56306,-58.60165 3.84138,-57.46133 -7.15884,18.55059 2.67554,38.49408 -3.84138,57.46133 z m -0.78701,-7.61562 0.25833,-0.0163 -0.25833,0.0163 z m -0.66057,-4.72192 c -19.407656,-12.44759 18.25748,-0.49762 0,0 z m 451.27134,5.07782 c 4.59801,-18.58737 -13.03824,10.65569 0,0 z m 58.64225,-10.73428 -0.0359,0.20156 0.0359,-0.20156 z m -74.94397,-4.52308 c 6.17253,-18.05398 -15.35756,8.44826 0,0 z m 69.15098,-0.11792 -0.4325,0.008 0.4325,-0.008 z m -1.8,-1.70119 c 10.13863,-2.74206 -6.58355,-2.08825 0,0 z m -2.99711,-2.76147 c -2.17106,-21.70944 -12.46499,15.71578 0,0 z m -264.9779,-10.3401 c 24.8608,-20.8477 -16.88129,-17.54263 -9.99642,-1.0614 l 3.87775,0.91602 6.11867,0.14538 z m 179.54941,-2.05753 c 20.06312,-39.43427 -37.31903,5.94983 0,0 z m 64.1256,-4.0937 -1.02624,-0.80811 1.02624,0.80811 z m -2.7283,-2.6298 c 8.39979,-9.32647 -10.00881,3.80497 0,0 z m -22.50767,-2.28235 c 8.98538,8.4315 -5.02662,-0.1217 -0.91884,-3.45202 l 0.91884,3.45202 z m -33.35934,-3.15211 c 14.62921,14.9251 -0.0429,-11.53637 0,0 z m 48.51531,-0.80164 c 7.07108,-5.061 -7.04412,0.71406 0,0 z m -3.43447,-4.15511 c 13.56236,18.53309 3.20393,-13.20438 0,0 z M 465.17693,903.73586 c 23.37468,-17.0238 -24.33289,-19.59343 0,0 z m -136.3632,-2.33008 c 19.797,-21.90634 -22.073,-4.39191 -4.75971,0.57487 l 4.75971,-0.57487 z m -171.8351,-3.29807 c -5.00784,9.29745 6.68188,-1.94866 0,0 z m 1.82337,-2.76408 c 12.93245,6.84021 -5.74723,-9.06303 0,0 z m -4.11278,-4.18666 c 22.44552,-9.6728 -5.51101,-10.82737 -6.67764,-0.58915 l 6.67764,0.58915 z m 212.27815,-2.9104 c 6.52338,-29.90329 -50.95598,-37.3386 -42.25821,-7.43474 12.1036,8.64215 28.10651,7.38572 42.25821,7.43474 z M 167.76024,887.3443 c 20.64362,-4.27295 -15.66715,-8.86095 0,0 z m 7.62352,-16.07726 c 4.94144,12.41536 1.98035,-7.74751 0,0 z m 1.39136,-3.41798 c -8.16581,10.14089 8.1803,-1.00956 0,0 z m 1.54561,-2.71328 -0.30268,0.41524 0.30268,-0.41524 z m 0.72949,-2.02176 c -0.99708,10.65025 4.66228,-4.63632 0,0 z m 4.75105,-11.70324 c 1.36975,8.11593 5.39224,-9.37885 0,0 z m 3.61118,-5.70296 -0.0741,0.6133 0.0741,-0.6133 z m 2.98046,-6.23619 c 7.40429,7.66061 -1.5291,-7.41662 0,0 z m 1.98633,-4.60586 c 3.07404,8.89471 1.80788,-6.12036 0,0 z m 169.7265,-1.65134 c 3.43837,-37.35318 -36.3818,0.16364 -12.16253,6.4565 4.50309,-1.21435 8.41831,-3.79305 12.16253,-6.4565 z M 335.6997,803.69765 c -9.46838,3.33085 9.38708,9.05199 0,0 z m 55.07988,-1.54506 c 7.17278,-34.06088 -30.53224,-1.1517 -10.91947,5.8539 4.0397,-1.12757 7.53966,-3.47602 10.91947,-5.8539 z m -115.2233,-19.39681 c 32.55663,-18.4094 -8.28428,-58.22317 -24.85619,-27.77152 1.29722,13.40082 14.92173,20.78505 24.85619,27.77152 z m 136.42582,-4.27085 c 10.98827,-19.08119 -18.68085,5.9649 0,0 z M 310.41722,761.38545 c 10.1246,-5.31698 -7.82912,-0.43778 0,0 z m 35.20955,-9.75899 c -6.86418,-31.02354 -17.24712,21.99026 0,0 z m -61.76308,-7.37255 c 11.15395,-17.76605 -18.15908,6.03191 0,0 z m 23.46099,-4.55697 c -5.43892,21.91018 14.09187,-11.55185 0,0 z m 11.4242,-30.60599 c 24.02299,-6.70158 3.05085,-21.11984 -8.37302,-6.32934 0.76871,3.82394 5.65256,4.74651 8.37302,6.32934 z m 60.8247,-19.14052 c 14.74725,-29.93753 -30.37954,-12.01688 -12.17065,1.28524 4.11576,0.50229 8.20124,-0.32415 12.17065,-1.28524 z m -42.70833,-10.14467 c 2.12468,19.9004 12.94598,16.3494 5.64731,-2.82172 -1.68833,-4.10676 -5.29733,0.86509 -5.64731,2.82172 z M 214.18141,1169.9429 c -2.64878,-19.4363 8.97257,12.7847 0,0 z m 140.37516,-24.8174 c -14.97054,-21.0988 12.10109,5.142 0,0 z m -5.47697,-43.8838 c -14.751,-0.134 7.56166,-4.9374 0,0 z m 5.93372,-20.5188 -0.17909,-1.6761 -3.8e-4,0 0.17909,1.6761 3.8e-4,0 z M 62.588055,1014.5358 c -2.262365,-2.1069 -1.479007,-1.3774 0,0 z"
         id="path4227"
         inkscape:connector-curvature="0" />
      <path
         style="fill:#466e8c"
         d="m 456.70292,1169.1858 c -16.69161,3.1208 -54.08116,5.0682 -57.69044,-11.6287 19.76204,-1.7893 38.85315,6.551 57.69044,11.6287 z M 268.15869,1143.985 c -13.94107,19.2208 -5.637,-21.7484 0,0 z m -65.34578,-5.3916 C 137.13772,1076.1029 65.504936,1009.3929 42.149207,918.46119 26.088327,855.95796 51.244823,791.61918 85.280184,739.7534 161.91499,629.93547 315.57372,573.53527 442.50717,623.41583 c 63.19171,26.03582 112.75336,78.8341 145.69267,137.66465 38.73615,71.29246 49.28914,161.5551 12.76956,235.91362 -4.72905,69.2502 -69.28351,122.2037 -136.61513,124.6701 -59.45927,5.4521 -121.42144,-30.0587 -140.74117,-87.7519 -33.23235,-41.5655 -104.25828,-40.99694 -139.83133,-2.9648 -24.03452,27.8732 4.45094,66.2194 32.43076,76.4753 13.71177,2.8425 36.21245,10.7848 8.24486,11.8949 -9.75824,2.0034 -21.4984,7.7032 -21.64448,19.2757 z m 307.52625,-12.0695 c -5.80204,7.0934 11.07871,-1.9468 0,0 z m -146.81124,-5.7304 c 9.84187,3.9759 32.28329,5.0554 9.09586,-2.4989 -4.60216,-2.6784 -19.4466,-4.8363 -9.09586,2.4989 z m 157.60889,-1.1011 c -2.56168,22.9106 11.5131,-7.5433 0,0 z m -67.02141,-1.9536 c 10.01505,-10.2384 -5.38725,-5.8501 -3.33474,0.7512 l 3.33474,-0.7512 z m -89.71313,-15.0992 c 19.67967,0.9572 5.42209,-9.3761 -3.59802,-2.5725 l 3.59802,2.5725 z m 178.17434,-11.0993 c 13.47977,-18.0655 -21.45346,-3.0149 0,0 z M 407.9739,1078.1998 c 5.91969,-24.8242 -18.09073,-24.6414 -19.27031,-1.7585 -2.89501,15.0672 13.67924,6.7985 19.27031,1.7585 z m -32.70181,-5.66 c 22.36574,-23.16 -28.41769,-1.5707 0,0 z m 32.69792,-6.524 c 29.029,-4.359 24.12782,-36.8038 -4.61845,-32.714 -29.52873,0.01 -7.01175,25.4107 4.61845,32.714 z m -50.95835,-3.015 c 19.77464,-18.8108 -23.4839,-29.2946 -10.22321,-7.7124 2.93555,3.1536 6.5282,5.5618 10.22321,7.7124 z m 113.91126,-21.0337 c 35.3151,-5.4556 -0.43184,-40.4837 -13.14389,-17.209 1.55365,7.3986 7.88877,12.3782 13.14389,17.209 z m -103.80625,-6.0187 c 7.98855,22.1338 8.26565,-15.5525 0,0 z m -245.74269,-9.2537 -0.33488,0.2472 0.33488,-0.2472 z m -1.97343,-4.8429 -0.0119,1.0113 0.0119,-1.0113 z m -1.0104,-2.546 -0.0521,-1.0254 0.0521,1.0254 z m -1.52681,-2.25 c 11.13642,-2.9615 -9.21175,-3.3423 0,0 z m 281.60539,-3.9072 c -1.48615,-20.22514 -6.1201,12.029 0,0 z m -80.45581,-0.8178 c -9.39514,-15.73806 -0.19425,16.3531 0,0 z m 95.94,-0.36 c -10.71948,-6.9664 5.72544,11.8407 0,0 z m -89.35757,-1.7302 -0.4879,-0.235 0.4879,0.235 z m -222.5373,-1.7552 c 11.44035,-14.38751 -14.901058,5.4117 0,0 z m 260.86316,-1.2514 c 5.00526,16.0687 1.02298,-11.29816 0,0 z m -34.26502,-2.5982 c 29.64983,-13.27212 -20.9896,-13.05524 -5.1789,-1.3565 l 5.1789,1.3565 z m -122.65272,0.4727 c -1.25888,-14.29402 -5.0259,11.2758 0,0 z m 203.25201,-1.7567 -1.09923,0.6151 1.09923,-0.6151 z m 41.93107,-0.3847 c 7.24779,-27.49755 -20.28121,8.1703 -3.77015,2.943 l 3.77015,-2.943 z m -70.53363,-3.96695 -0.37833,0.25465 0.37833,-0.25465 z m -281.382775,-5.22729 0.892395,-1.26294 -0.892395,1.26294 z m -3.739698,-9.48771 0.574294,-1.47241 -0.574294,1.47241 z m 8.349463,-12.76938 c 21.52052,-8.15709 28.56306,-58.60165 3.84138,-57.46133 -7.15884,18.55059 2.67554,38.49408 -3.84138,57.46133 z m -0.78701,-7.61562 0.25833,-0.0163 -0.25833,0.0163 z m -0.66057,-4.72192 c -19.407656,-12.44759 18.25748,-0.49762 0,0 z m 451.27134,5.07782 c 4.59801,-18.58737 -13.03824,10.65569 0,0 z m 58.64225,-10.73428 -0.0359,0.20156 0.0359,-0.20156 z m -74.94397,-4.52308 c 6.17253,-18.05398 -15.35756,8.44826 0,0 z m 69.15098,-0.11792 -0.4325,0.008 0.4325,-0.008 z m -1.8,-1.70119 c 10.13863,-2.74206 -6.58355,-2.08825 0,0 z m -2.99711,-2.76147 c -2.17106,-21.70944 -12.46499,15.71578 0,0 z m -264.9779,-10.3401 c 24.8608,-20.8477 -16.88129,-17.54263 -9.99642,-1.0614 l 3.87775,0.91602 6.11867,0.14538 z m 179.54941,-2.05753 c 20.06312,-39.43427 -37.31903,5.94983 0,0 z m 64.1256,-4.0937 -1.02624,-0.80811 1.02624,0.80811 z m -2.7283,-2.6298 c 8.39979,-9.32647 -10.00881,3.80497 0,0 z m -22.50767,-2.28235 c 8.98538,8.4315 -5.02662,-0.1217 -0.91884,-3.45202 l 0.91884,3.45202 z m -33.35934,-3.15211 c 14.62921,14.9251 -0.0429,-11.53637 0,0 z m 48.51531,-0.80164 c 7.07108,-5.061 -7.04412,0.71406 0,0 z m -3.43447,-4.15511 c 13.56236,18.53309 3.20393,-13.20438 0,0 z M 465.17693,903.73586 c 23.37468,-17.0238 -24.33289,-19.59343 0,0 z m -136.3632,-2.33008 c 19.797,-21.90634 -22.073,-4.39191 -4.75971,0.57487 l 4.75971,-0.57487 z m -171.8351,-3.29807 c -5.00784,9.29745 6.68188,-1.94866 0,0 z m 1.82337,-2.76408 c 12.93245,6.84021 -5.74723,-9.06303 0,0 z m -4.11278,-4.18666 c 22.44552,-9.6728 -5.51101,-10.82737 -6.67764,-0.58915 l 6.67764,0.58915 z m 212.27815,-2.9104 c 6.52338,-29.90329 -50.95598,-37.3386 -42.25821,-7.43474 12.1036,8.64215 28.10651,7.38572 42.25821,7.43474 z M 167.76024,887.3443 c 20.64362,-4.27295 -15.66715,-8.86095 0,0 z m 7.62352,-16.07726 c 4.94144,12.41536 1.98035,-7.74751 0,0 z m 1.39136,-3.41798 c -8.16581,10.14089 8.1803,-1.00956 0,0 z m 1.54561,-2.71328 -0.30268,0.41524 0.30268,-0.41524 z m 0.72949,-2.02176 c -0.99708,10.65025 4.66228,-4.63632 0,0 z m 4.75105,-11.70324 c 1.36975,8.11593 5.39224,-9.37885 0,0 z m 3.61118,-5.70296 -0.0741,0.6133 0.0741,-0.6133 z m 2.98046,-6.23619 c 7.40429,7.66061 -1.5291,-7.41662 0,0 z m 1.98633,-4.60586 c 3.07404,8.89471 1.80788,-6.12036 0,0 z m 169.7265,-1.65134 c 3.43837,-37.35318 -36.3818,0.16364 -12.16253,6.4565 4.50309,-1.21435 8.41831,-3.79305 12.16253,-6.4565 z M 335.6997,803.69765 c -9.46838,3.33085 9.38708,9.05199 0,0 z m 55.07988,-1.54506 c 7.17871,-34.06746 -30.53734,-1.15242 -10.92228,5.85505 4.04068,-1.12782 7.54155,-3.47673 10.92228,-5.85505 z m -115.2233,-19.39681 c 27.74593,-15.9825 -5.7417,-52.17667 -20.73603,-24.90769 0.78059,11.63385 12.27461,18.67367 20.73603,24.90769 z m 136.42582,-4.27085 c 10.98827,-19.08119 -18.68085,5.9649 0,0 z M 310.41722,761.38545 c 10.1246,-5.31698 -7.82912,-0.43778 0,0 z m 35.20955,-9.75899 c -6.86418,-31.02354 -17.24712,21.99026 0,0 z m -61.76308,-7.37255 c 11.15395,-17.76605 -18.15908,6.03191 0,0 z m 23.46099,-4.55697 c -5.43892,21.91018 14.09187,-11.55185 0,0 z m 11.4242,-30.60599 c 24.02299,-6.70158 3.05085,-21.11984 -8.37302,-6.32934 0.76871,3.82394 5.65256,4.74651 8.37302,6.32934 z m 60.8247,-19.14052 c 14.74725,-29.93753 -30.37954,-12.01688 -12.17065,1.28524 4.11576,0.50229 8.20124,-0.32415 12.17065,-1.28524 z m -42.70833,-10.14467 c 2.12468,19.9004 12.94598,16.3494 5.64731,-2.82172 -1.68833,-4.10676 -5.29733,0.86509 -5.64731,2.82172 z m 149.98767,448.98504 0.79018,0 -0.79018,0 z M 62.588055,1014.5358 c -2.262365,-2.1069 -1.479007,-1.3774 0,0 z"
         id="path4225"
         inkscape:connector-curvature="0" />
      <path
         style="fill:#375c72"
         d="m 456.70292,1169.1858 c -16.69161,3.1208 -54.08116,5.0682 -57.69044,-11.6287 19.76204,-1.7893 38.85315,6.551 57.69044,11.6287 z M 268.15869,1143.985 c -13.94107,19.2208 -5.637,-21.7484 0,0 z m -65.34578,-5.3916 c -45.18528,-12.3818 -70.57203,-57.397 -76.73928,-101.1715 -11.06025,-51.81141 -4.80145,-111.20679 -39.113446,-155.20941 -22.071522,-16.79866 -43.90849,-30.66627 -36.67359,-62.91784 4.055312,-75.01761 63.743836,-132.60637 124.515976,-169.1213 75.16299,-47.90519 171.77078,-56.01647 255.07945,-25.86182 93.49908,31.51221 173.91017,112.73973 186.37445,213.12884 18.45364,83.71688 4.57581,180.02253 -53.91176,245.48693 -32.03997,35.7444 -83.39931,50.0366 -129.76625,39.578 -34.55879,2.0886 -71.58598,-15.8726 -82.34685,-50.5867 -19.60601,-50.1219 -6.26371,-110.1673 -38.45144,-155.6783 -24.75429,-30.30795 -69.02063,-27.72829 -103.83425,-22.01618 -61.16782,13.38705 -89.77296,89.19804 -64.51861,143.48178 12.42384,31.2691 42.13729,51.2648 73.05478,60.9809 11.3944,9.5516 50.95673,22.8324 16.00886,18.4909 -12.81068,1.5501 -23.62866,10.3206 -29.67804,21.4157 z m 307.52625,-12.0695 c -5.80204,7.0934 11.07871,-1.9468 0,0 z m -146.81124,-5.7304 c 9.84187,3.9759 32.28329,5.0554 9.09586,-2.4989 -4.60216,-2.6784 -19.4466,-4.8363 -9.09586,2.4989 z m 157.60889,-1.1011 c -2.56168,22.9106 11.5131,-7.5433 0,0 z m -67.02141,-1.9536 c 10.01505,-10.2384 -5.38725,-5.8501 -3.33474,0.7512 l 3.33474,-0.7512 z m -89.71313,-15.0992 c 19.67967,0.9572 5.42209,-9.3761 -3.59802,-2.5725 l 3.59802,2.5725 z m 178.17434,-11.0993 c 13.47977,-18.0655 -21.45346,-3.0149 0,0 z M 407.9739,1078.1998 c 0.96318,-41.4452 -27.52108,25.4695 0,0 z m -32.61287,-6.2138 c 28.17963,-16.3474 -18.0342,-20.6158 -10.91812,-3.3882 3.35969,1.9187 7.16966,2.6929 10.91812,3.3882 z m 33.19189,-5.5469 c 36.57721,1.5092 46.68814,-42.3116 9.6061,-53.3724 -32.78844,-25.26177 -51.79826,13.5934 -25.95419,37.0053 0.90411,8.9283 9.94601,12.1943 16.34809,16.3671 z m -1.54537,-96.5232 0.4378,-0.20904 -0.4378,0.20904 z m -49.76487,93.3354 c 18.01147,-33.3201 -37.5536,-17.1256 0,0 z m 9.39861,-24.6855 c 16.81392,-0.3714 0.85152,-8.7263 -3.35114,-1.9012 l 3.35114,1.9012 z m -245.26731,-11.8711 -0.33488,0.2472 0.33488,-0.2472 z m -1.97343,-4.8429 -0.0119,1.0113 0.0119,-1.0113 z m -1.0104,-2.546 -0.0521,-1.0254 0.0521,1.0254 z m -1.52681,-2.25 c 11.13642,-2.9615 -9.21175,-3.3423 0,0 z m 247.38557,-5.559 c 23.97151,1.2085 -16.43144,-12.11826 0,0 z m 86.93764,-8.5297 c 5.67605,-27.35273 -19.19088,8.5457 -3.47306,3.0241 l 3.47306,-3.0241 z m 4.34004,-8.5345 c 6.00785,-14.60813 -10.14419,8.9047 0,0 z m 10.03374,-3.52948 c 31.46263,-27.77617 -38.39621,-46.04541 -31.01293,-14.43173 8.4623,7.91512 20.22573,11.0534 31.01293,14.43173 z m -21.15141,-18.11835 c -9.33378,5.46434 2.34995,-5.95268 0,0 z m 18.504,-11.11185 0.71213,-0.69195 -0.71213,0.69195 z m -9,-3.27313 c -9.72807,-17.3062 9.98582,7.85289 0,0 z m 9.045,-3.98402 c 9.51362,5.93028 -14.99576,7.36009 0,0 z m -12.42,-0.15638 c -32.78045,-5.23589 21.87815,-9.17848 0,0 z m 11.7729,-3.00778 c -1.8486,8.98368 -3.55733,-4.55602 0,0 z m -24.9579,-16.05084 -1.0064,0.29544 1.0064,-0.29544 z m 9.00378,-7.49793 0.93209,-0.27873 -0.93209,0.27873 z m 0.35622,-1.73607 0.62383,-0.46281 -0.62383,0.46281 z m -0.72,-0.38781 0.58566,-0.99612 -0.58566,0.99612 z m -88.76617,55.92462 c 6.91224,27.97602 10.25055,-22.7748 0,0 z m 81.38617,-14.98281 -0.24813,0.006 0.24813,-0.006 z m -59.83387,-0.43651 c -9.23077,17.97433 12.99046,-3.23775 0,0 z m 174.92462,-1.82821 c 4.59801,-18.58737 -13.03824,10.65569 0,0 z m -171.71548,-1.98454 -0.14763,-0.33587 0.14763,0.33587 z m 230.35773,-8.74974 -0.0359,0.20156 0.0359,-0.20156 z m -138.62504,-2.09803 c 9.28444,2.93972 -5.48283,-5.55216 0,0 z m 63.68107,-2.42505 c 6.59943,-18.01825 -15.57025,8.13998 0,0 z m 69.15098,-0.11792 -0.4325,0.008 0.4325,-0.008 z m -136.62001,-1.26 -0.73226,-0.84464 0.73226,0.84464 z m 3.38507,-0.76843 c 10.18885,2.77147 -3.74005,1.92396 -2.12655,-2.28266 l 2.12655,2.28266 z m 131.43494,0.32724 c 10.13863,-2.74206 -6.58355,-2.08825 0,0 z M 372.7745,945.86577 c -1.54852,17.8802 8.87593,-8.73882 0,0 z m 228.98132,-1.44766 c -2.17106,-21.70944 -12.46499,15.71578 0,0 z m -223.44355,-5.64583 c 18.16475,-12.34439 -18.60587,-0.28075 0,0 z m 101.16065,-4.06787 c 2.64262,7.43051 3.81372,-9.75902 0,0 z m -108.9,-1.75364 c 27.80259,-7.9797 -18.44974,-5.99729 0,0 z m -1.92001,-1.80792 0.27821,-0.0782 -0.27821,0.0782 z m 147.42573,1.16486 c 21.56355,-26.08302 -26.76987,-16.67106 -12.28516,-0.70295 4.00542,1.14659 8.18949,0.98392 12.28516,0.70295 z m 64.37429,-4.38093 -1.02624,-0.80811 1.02624,0.80811 z m -157.67801,-0.64973 -0.26796,-0.56676 0.26796,0.56676 z m 45.86911,-0.81475 c 2.57555,12.33965 4.94236,-6.16733 0,0 z m 109.0806,-1.16532 c 8.39979,-9.32647 -10.00881,3.80497 0,0 z m -22.50767,-2.28235 c 8.98538,8.4315 -5.02662,-0.1217 -0.91884,-3.45202 l 0.91884,3.45202 z m -89.78404,-2.60755 -0.81608,0.20137 0.81608,-0.20137 z m -95.76,0.39369 c -1.21996,15.55353 8.96779,-4.05901 0,0 z m 152.1847,-0.93825 c 14.62921,14.9251 -0.0429,-11.53637 0,0 z M 391.09504,918.3272 c 19.63257,-9.87775 -18.59864,-7.84598 0,0 z m -42.67228,-0.10205 c 13.70395,11.65052 -4.16908,-14.69792 0,0 z m 221.95017,0.83573 c 7.07108,-5.061 -7.04412,0.71406 0,0 z m -202.5462,-2.58011 c 9.65408,2.79001 -2.48084,-5.01719 0,0 z m 78.16619,-0.63 c 17.39314,-15.8028 -17.35606,3.47486 0,0 z m 120.94554,-0.945 c 13.56236,18.53309 3.20393,-13.20438 0,0 z m -80.47943,-1.34263 c 1.45579,9.73759 3.97565,-5.15756 0,0 z m -142.87852,-0.1462 c 12.97774,-3.7964 -6.79648,-2.64056 0,0 z m 44.45241,-1.97617 -0.34492,0 0.34492,0 z m -40.42286,-1.36285 0.1687,-1.13203 -0.1687,1.13203 z m 71.29614,-0.19614 c 11.16618,21.45124 -1.00068,-15.94317 0,0 z m 65.54968,-2.61476 -0.0332,0.32517 0.0332,-0.32517 z m -19.30054,-3.30571 c 27.50603,-10.55341 -11.94747,-34.83233 -7.41343,-10.24039 1.78902,3.86909 4.52182,7.16529 7.41343,10.24039 z m -292.61178,-2.03312 c -3.42728,14.51269 8.5706,-3.88512 0,0 z m 156.27017,-0.52241 c 16.74046,-20.32714 -21.68229,-1.09154 -4.5736,0.89122 l 4.5736,-0.89122 z m 64.03055,-1.61599 -0.002,1.25755 0.002,-1.25755 z m -290.29138,0.0473 c 8.05604,-7.71056 -4.079003,-5.09116 -2.54942,0.34473 l 2.54942,-0.34473 z m 7.38,0.0837 c -6.79231,-5.10821 -1.1471,1.33402 0.69658,3.32657 l -0.69658,-3.32657 z m 278.10002,0 c -6.68372,0.90372 9.16288,5.25754 0,0 z m -252.54277,-0.23562 -0.11005,-0.76486 0.11005,0.76486 z m -3.33431,-0.14663 c 0.77211,9.32355 4.09095,-4.43682 0,0 z m 257.85708,-0.15775 -1.42649,0 1.42649,0 z m -7.45715,-0.25715 c 2.781,-10.60475 -6.04504,7.07155 0,0 z m -225.57714,-1.01592 c -5.00784,9.29745 6.68188,-1.94866 0,0 z m 151.7476,-0.0439 1.38698,0.14115 -1.38698,-0.14115 z m 82.73398,-0.1569 -1.11823,-10e-4 1.11823,10e-4 z m -259.86442,-1.85038 -0.35775,-0.33286 0.35775,0.33286 z m 27.20621,-0.71291 c 12.93245,6.84021 -5.74723,-9.06303 0,0 z m -22.9482,-1.31517 c 10.1231,-12.08764 -15.31637,4.42121 0,0 z m 162.58411,0.35753 c -4.09573,0.006 -5.75281,0.009 0,0 z m 84.01747,-1.71021 -0.0857,-0.69566 0.0857,0.69566 z m -70.25578,-0.45 c -7.86466,14.72899 10.06511,-1.56472 0,0 z m -157.51038,-1.06881 c 24.41146,-19.12271 -22.01308,-5.44768 -5.06481,0.28883 l 5.06481,-0.28883 z m 27.69369,-0.77619 -0.4233,-0.0565 0.4233,0.0565 z m 127.89798,-2.385 c 9.0797,20.25774 2.64201,-14.25227 0,0 z m 56.68648,0.25079 c 23.04223,-36.60668 -51.63773,-42.45709 -41.93596,-10.8284 12.62121,8.69784 28.9295,3.91192 41.93596,10.8284 z m -240.11722,-1.43141 -0.29521,-0.69937 0.29521,0.69937 z m 40.91009,0.52914 c 23.15763,-2.60648 -13.69593,-19.67072 0,0 z m 30.19267,-0.92352 c -4.11442,0 -5.36874,0 0,0 z m 148.64444,-0.58715 -0.68966,-0.52097 0.68966,0.52097 z m -4.30774,-0.29464 c -7.54481,-3.79624 5.57365,9.3285 0,0 z m -143.6167,-1.63821 c -5.94512,-16.8437 -0.24484,13.82734 0,0 z m 15.3,0.18 c 4.75782,-23.71778 -12.37383,-2.57176 -4.33472,4.80627 l 4.33472,-4.80627 z m -8.24887,-1.59696 c 2.97669,-0.38769 1.54991,-0.20187 0,0 z m 96.26887,0.87696 -0.34492,0 0.34492,0 z m -4.90705,-1.28654 c -10.13473,16.8333 15.63211,-5.46438 0,0 z m -18.67295,-0.15346 c 33.41947,11.56549 -4.15052,-14.60386 0,0 z m -192.420007,-0.99 c -10.719198,-6.96703 5.724861,11.84085 0,0 z m 245.520017,-1.60938 -0.45396,-0.18097 0.45396,0.18097 z M 85.992903,875.53078 c -6.883298,-10.67761 1.543167,11.73055 0,0 z m 216.000007,-0.09 -1.24717,0 1.24717,0 z m -111.6,-1.50797 c 10.36404,6.89337 0.44369,-8.02401 0,0 z M 85.992903,872.92078 c -6.792316,-5.10816 -1.147111,1.33401 0.696592,3.32657 l -0.696592,-3.32657 z m 41.919127,-2.745 c -0.28793,2.4946 -0.25132,2.17743 0,0 z m 158.06088,2.745 c -5.94512,-16.8437 -0.24484,13.82734 0,0 z m -8.1,-2.52 c -4.28389,0 -4.97327,0 0,0 z m -153.62042,-0.68982 -0.594,-0.40599 0.594,0.40599 z m 154.2373,-0.84018 c -2.46591,-13.45073 -3.80206,11.46939 0,0 z m -192.496887,-0.9 c -10.719198,-6.96703 5.724861,11.84085 0,0 z m 199.980007,0 c -6.66995,-5.87905 -1.21732,1.3239 0.43575,3.47376 l -0.43575,-3.47376 z M 140.3888,867.38655 c -3.04397,8e-5 -1.82401,5e-5 0,0 z m 167.21142,-1.08077 c 1.0834,-7.0237 -5.94666,8.29511 0,0 z m -182.00731,-0.0282 1.38804,-0.22223 -1.38804,0.22223 z m 73.25428,-7.08184 c 14.16583,6.12168 1.01312,-7.25073 0,0 z m -5.13764,-1.1551 -0.20135,-0.55319 0.20135,0.55319 z m 5.02991,-5.6849 -0.16472,-0.48806 0.16472,0.48806 z m 292.8873,-2.11076 -0.40019,-0.12196 0.40019,0.12196 z m -293.85661,-1.22986 -0.0945,0.77715 0.0945,-0.77715 z m -10.3577,-3.30734 -0.0741,0.6133 0.0741,-0.6133 z m 87.10258,-5.1048 -0.20885,-0.0972 0.20885,0.0972 z m -84.12212,-1.13713 c 10.53774,5.50236 -4.67094,1.20293 -1.75655,-2.98545 l 1.75655,2.98545 z m -85.6116,-1.96335 c 2.67187,10.85563 4.24937,-5.62999 0,0 z m 264.54387,-2.04466 -0.65683,-0.34668 0.65683,0.34668 z m -265.53944,-1.47434 0.5652,-1.13689 -0.56523,1.13689 3e-5,0 z m 257.87718,-0.66272 c 3.59092,-34.16211 -32.34667,0.77533 -10.90749,6.21183 4.06458,-1.24081 7.5581,-3.69791 10.90749,-6.21183 z m 76.59,-5.39136 c 9.0344,15.51125 1.1192,-13.27911 0,0 z m -242.22624,-1.45593 c 0.53749,16.44938 6.21696,-9.40533 0,0 z m 9.63629,-2.92664 0.18329,-1.03923 -0.18329,1.03923 z m -7.23208,-2.60107 c 0.39746,10.10173 -3.03309,-3.43164 1.36456,-2.31664 l -1.36456,2.31664 z m -130.437988,-12.015 c -4.990354,-4.5753 2.831309,8.44631 0,0 z m 0,-5.04 c -4.990354,-4.5753 2.831309,8.44631 0,0 z m 268.200018,-0.416 c -7.53696,4.00887 11.44458,3.63292 0,0 z m 54.43544,-0.64633 c 5.81216,-48.2222 -33.78689,21.75276 0,0 z m -67.06838,-3.76758 -0.44727,-0.0674 0.44727,0.0674 z m -181.58707,-6.15009 c -10.71916,-6.96691 5.72489,11.8408 0,0 z m 0,-5.04 c -10.71916,-6.96691 5.72489,11.8408 0,0 z m 133.58337,-5.115 c 27.85323,-15.67747 -5.01438,-52.62374 -20.37706,-25.34601 0.61604,11.68021 11.98245,18.95023 20.37706,25.34601 z m 136.42582,-4.27085 c 10.98827,-19.08119 -18.68085,5.9649 0,0 z M 310.55082,762.028 c 15.29725,-5.06497 -10.18728,-2.38129 0,0 z m 35.07595,-10.40154 c -10.85191,-25.42537 -23.36787,19.82411 0,0 z m -61.76308,-7.37255 c 11.431,-17.72641 -18.45632,5.60529 0,0 z m -34.31774,-21.54799 0.008,0.92752 -0.008,-0.92752 z m 69.20293,-13.61497 c 34.87554,-21.15709 -29.21488,-6.19793 0,0 z m 60.8247,-19.14052 c 16.72162,-31.58311 -34.35844,-12.88582 -13.91733,1.00297 4.67152,0.64043 9.3492,-0.10324 13.91733,-1.00297 z m -42.70833,-10.14467 c 16.79756,28.28757 3.43831,-23.22338 0,0 z m 149.98767,448.98504 0.79018,0 -0.79018,0 z M 103.0929,963.90015 l 0.25833,-0.0163 -0.25833,0.0163 z m -7.983986,-3.45144 c -6.176531,19.50779 -5.710458,-12.65473 0,0 z m 7.323416,-1.27048 c -19.407656,-12.44759 18.25748,-0.49762 0,0 z m -7.250291,-3.09746 0.416839,-0.69929 -0.416839,0.69929 z m 87.997491,-25.425 c 6.70078,-4.02079 -5.04522,9.14556 0,0 z m 7.36194,-1.72661 c -1.56035,25.08899 -9.66381,-6.87036 0,0 z m 50.18716,-0.83839 c 6.09937,-2.98031 1.60463,1.22402 -1.51979,2.82967 l 1.51979,-2.82967 z m -0.35204,-2.43867 c 6.70659,-6.43687 -3.25788,9.9258 0,0 z m 63.14632,-3.23133 c 4.51489,0 4.59167,0 0,0 z m -62.91,-2.43 c 7.20001,-9.36737 -2.07194,9.93284 0,0 z m 30.06817,-0.0747 c 5.56104,-13.4644 1.32826,11.03965 0,0 z m -104.68254,-0.75516 0.18591,-1.13866 -0.18591,1.13866 z M 286.4499,919.0008 c -8.96609,19.68661 0.56549,-13.57212 0,0 z m 15.84862,0.21935 c -4.69387,8.87897 -2.49448,-5.84348 0,0 z m 7.61439,-0.72335 c -7.6087,7.681 -0.5528,-7.2687 0,0 z m -69.525,-0.75319 c 7.12196,-6.76205 -3.60713,10.70365 0,0 z m 30.105,-0.0113 c 3.94921,-14.35866 2.7068,11.23958 0,0 z m -29.42492,-3.27647 c -18.50331,-4.59626 0.4118,-9.30734 0,0 z m 29.58993,0.63339 c -0.45866,-11.81716 6.00383,8.27274 0,0 z m -10.10855,-0.59546 c -26.77317,-9.78493 21.73795,-7.19483 0,0 z m -75.46646,-0.17293 c 3.33665,-5.81403 -0.14877,7.55755 0,0 z m 15.09847,-0.22966 c -3.07112,-0.20392 -1.96433,-0.13043 0,0 z M 54.615467,912.02577 c 9.393833,19.8461 -18.745489,1.77024 0,0 z m 31.973595,-0.14101 c 6.911116,-8.04622 -2.725467,9.79786 0,0 z m 158.002698,-0.0723 c -8.70353,-9.69592 8.61334,3.27915 0,0 z m -5.59251,-0.89982 c -6.435,10.41298 -3.75354,-6.78759 0,0 z M 86.522139,909.78639 c 4.455141,-0.74679 4.525003,-0.7585 0,0 z m 112.271471,-5.80053 c -5.63107,-11.67802 6.98476,6.41478 0,0 z m 71.23229,-0.71449 c -7.36077,-5.28582 6.85819,1.17871 0,0 z m -228.969107,-8.84059 0.08782,-0.29536 -0.08782,0.29536 z m 156.896117,0 c -9.5043,-2.42882 4.47457,-3.87865 0,0 z m 72.21463,1.0152 c -9.92494,7.53748 0.18769,-7.10786 0,0 z m -63.88963,-0.24489 c -3.12175,-5.42436 5.97776,4.24037 0,0 z m -25.21658,-2.48031 0.11816,0 -0.11816,0 z m 33.94658,-0.11922 0.43917,0.009 -0.43917,-0.009 z m -8.1135,-2.10229 0.0981,-0.33388 -0.0981,0.33388 z"
         id="path4223"
         inkscape:connector-curvature="0" />
      <path
         style="fill:#655c33"
         d="m 456.70292,1169.1858 c -16.69161,3.1208 -54.08116,5.0682 -57.69044,-11.6287 19.76204,-1.7893 38.85315,6.551 57.69044,11.6287 z M 268.15869,1143.985 c -13.94107,19.2208 -5.637,-21.7484 0,0 z m -65.34578,-5.3916 c -51.57489,-16.5667 -75.93855,-72.4741 -88.25417,-121.0005 -7.16326,-36.7018 -14.48315,-81.06433 9.76206,-113.09553 12.28107,-14.15948 41.46984,-12.64394 21.52693,7.92433 -25.14258,49.13424 -13.74784,110.4011 21.39635,151.605 14.21965,19.936 36.94193,35.3645 52.83391,51.0573 -1.52225,10.7944 -10.37155,16.1273 -17.26508,23.5094 z m -74.9112,-100.8707 c 7.04679,8.9917 -0.41727,-7.7833 0,0 z m -3.57281,-5.6369 -0.29567,-1.1786 0.29567,1.1786 z m -2.95492,-5.3911 -0.33488,0.2472 0.33488,-0.2472 z m -1.97343,-4.8429 -0.0119,1.0113 0.0119,-1.0113 z m -1.0104,-2.546 -0.0521,-1.0254 0.0521,1.0254 z m 0.003,-1.2957 c 10.22216,-13.6333 -13.9592,4.4089 0,0 z M 108.96,984.65577 c 2.81213,17.86033 6.53087,-9.87216 0,0 z m 397.33317,145.30713 c -42.50193,-30.0791 -95.70169,6.3467 -140.99845,-11.5735 -29.15542,-14.4925 -19.08755,-50.9649 -36.23616,-73.3821 -12.14309,-45.4388 1.95133,-96.33709 30.6936,-132.76961 21.94524,-35.79672 67.4529,0.0214 61.38151,30.46246 -13.35654,30.37327 -28.31507,67.17005 -14.9067,99.82135 21.31317,22.5232 56.91015,-4.3587 72.01965,-22.9434 28.01016,-42.19844 7.32811,-94.02438 1.45181,-139.57591 -6.65655,-32.95115 -1.7117,-74.56974 31.75256,-91.30291 34.54238,-22.42128 91.94414,-15.50282 107.50856,26.83756 19.45598,55.48534 2.09603,115.74109 -15.54377,169.384 -12.71915,38.74756 -33.50087,73.86576 -57.25305,106.70796 -10.20004,15.2029 -21.20243,32.8951 -39.86956,38.3341 z m 4.04624,-3.439 c -5.80204,7.0934 11.07871,-1.9468 0,0 z m -146.81124,-5.7304 c 9.84187,3.9759 32.28329,5.0554 9.09586,-2.4989 -4.60216,-2.6784 -19.4466,-4.8363 -9.09586,2.4989 z m 157.60889,-1.1011 c -0.29158,23.6416 14.90542,-12.0483 0,0 z m -67.02141,-1.9536 c 10.01505,-10.2384 -5.38725,-5.8501 -3.33474,0.7512 l 3.33474,-0.7512 z m -81.38248,-2.8622 -0.1138,1.122 0.1138,-1.122 z m -8.33065,-12.237 c 19.67967,0.9572 5.42209,-9.3761 -3.59802,-2.5725 l 3.59802,2.5725 z m 12.24565,-25.1656 c 27.17243,-18.2286 -14.61169,-32.3458 -16.13177,-9.0125 3.58036,5.3938 10.3796,7.0819 16.13177,9.0125 z m -16.80952,-11.2831 c 22.05277,-18.1337 -18.27096,-34.4913 -16.13326,-10.6869 3.72986,5.5404 10.23558,8.1821 16.13326,10.6869 z m 127.53021,-2.0115 c -13.27041,-1.3166 11.18067,9.2868 0,0 z m 5.25614,-0.825 c -7.93138,2.2187 8.75332,7.5688 0,0 z m 36.23107,-16.4641 c -14.4958,19.6602 17.23302,-0.3292 0,0 z M 367.5339,1013.3978 c 21.74861,2.6479 -0.1414,-11.3973 -5.02182,-3.6546 l 5.02182,3.6546 z m -10.41573,-22.86051 c 33.3891,12.33441 16.43863,-29.58796 -3.95841,-18.0191 -1.90813,6.22174 1.66235,12.45605 3.95841,18.0191 z m 29.385,-21.31652 0.24813,0.006 -0.24813,-0.006 z m 1.12183,-5.16502 0.61456,-0.88068 -0.61456,0.88068 z m 163.65128,20.57785 c 32.37306,2.94754 -20.35655,-15.64523 0,0 z m 3.58173,-18.92085 c 9.97515,-21.83652 -16.96687,9.06015 0,0 z M 388.79432,952.17324 c -9.67932,-5.24133 6.55763,13.3936 0,0 z m -0.2277,-0.85458 0.1518,-0.21596 -0.1518,0.21596 z m 8.65665,0.17836 c -5.82124,-2.84816 4.70019,10.00855 0,0 z m 141.70562,0.002 c 8.67492,-19.79434 -18.40883,8.46328 0,0 z m -165.34263,-1.93028 c 38.28116,-25.98062 -36.47268,-9.95796 0,0 z m 182.02692,-18.49265 -0.0746,-1.68187 -4.6e-4,-0.0103 0.0746,1.68187 4.6e-4,0.0103 z m -0.36592,-1.71851 c 15.30935,-4.18767 -3.62866,-8.45974 -4.02814,-1.2586 l 4.02814,1.2586 z m -30.13589,-4.67896 c 13.78177,-17.40226 -16.42176,4.79901 0,0 z M 391.2263,922.06355 c 30.01526,-19.83345 -13.97512,-29.27922 -16.98557,-6.62353 4.03917,5.00785 11.17783,5.40981 16.98557,6.62353 z m 85.70137,-0.10158 c -6.34648,16.60745 12.95611,-4.6306 0,0 z m -140.5545,-0.26154 -0.24813,0.006 0.24813,-0.006 z m -1.63125,-4.02575 0.01,0.71543 -0.01,-0.71543 z m 84.14582,-5.36143 c 19.1719,-11.70716 -18.32445,-1.43167 0,0 z m 55.81259,-12.28237 c 10.79994,17.189 11.41062,-1.86133 0.22213,-4.7066 l -0.22213,4.7066 z m -112.44192,-2.54521 -0.16836,0.2912 0.16836,-0.2912 z m 0.39476,-0.1689 -0.8071,-0.25694 0.8071,0.25694 z M 506.1637,880.23223 c 7.35693,-19.61989 -17.26758,9.46917 0,0 z m -19.31078,248.55857 0.79018,0 -0.79018,0 z m -23.90195,-93.555 c -23.05184,13.6585 2.86968,-20.7452 1.78676,-4.2358 l -1.78676,4.2358 z m 3.14196,-48.67503 0.20577,-1.0805 -0.20577,1.0805 z m -18.9,-4.86 0.0905,-0.74517 -0.0905,0.74517 z m -344.10003,-17.80062 0.25833,-0.0163 -0.25833,0.0163 z m -0.45918,-5.0236 c -15.863957,-2.7362 2.59121,-8.55295 3.91702,-1.53693 l -3.91702,1.53693 z m 255.23969,-55.3404 0.034,-0.48563 -0.034,0.48563 z m -0.62049,-0.89413 0.34564,-0.19873 -0.34564,0.19873 z M 155.56291,878.74289 c -7.01441,21.24843 -7.27293,-8.58726 0,0 z m 162.41626,-1.62507 0.32514,0.0333 -0.32514,-0.0333 z m -0.75134,-0.32704 0.3971,0.007 -0.3971,-0.007 z M 144.7016,876.23261 c -7.59233,-3.24059 6.01969,-0.30054 0,0 z m 172.27632,-0.44625 0.60182,0.0318 -0.60182,-0.0318 z m 18.13519,-6.60087 c -32.24104,12.80396 -44.06555,-33.54721 -10.06402,-37.73576 15.64388,3.98658 11.038,25.83246 10.06402,37.73576 z m 133.82981,-13.68774 c -7.17739,-32.99959 -42.70722,-46.4106 -73.21484,-46.85066 -36.02938,-3.18399 -82.48914,2.49409 -104.35236,-33.357 -16.21417,-27.72633 37.75413,-5.92149 54.68159,-6.63462 50.32699,9.38586 107.71515,32.60926 122.88561,86.84228 z M 337.72333,806.63734 c 17.5609,-23.24445 -22.1744,5.62377 0,0 z m -9.45621,-2.23176 c 14.54971,-22.24042 -18.8771,1.05286 -3.93564,1.5733 l 3.93564,-1.5733 z m 21.4258,-11.84418 -0.35193,-0.10319 0.35193,0.10319 z m -1.49705,-0.85437 -0.0333,0.32518 0.0333,-0.32518 z m -1.20951,-0.58837 -1.06083,0.28012 1.06083,-0.28012 z m -3.16198,-8.34788 -0.31068,0 0.31068,0 z m 16.61979,-4.45875 -0.33035,0.0103 0.33035,-0.0103 z m 29.68047,65.85375 c -2.58921,8.61365 -2.16638,-4.94375 0,0 z m -47.47469,-61.92 0.36748,0.20606 -0.36748,-0.20606 z m -2.3004,-1.01293 0.10887,-0.4134 -0.10887,0.4134 z m 1.62954,-0.35422 0.43633,-0.1583 -0.43633,0.1583 z m 9.33383,-1.20848 0.35193,0.10319 -0.35193,-0.10319 z m 55.61577,-0.49138 c -34.95005,20.57586 -53.75436,-26.91308 -44.11914,-54.39878 17.37325,-44.39731 28.13641,27.17628 32.75505,42.76295 2.60429,4.82321 6.46619,9.07052 11.36409,11.63583 z M 358.7093,702.79778 c 21.9807,-10.83286 -18.78314,-1.56521 0,0 z m -2.26638,75.45461 0.99705,-0.17946 -0.99705,0.17946 z m -2.29912,-15.31161 c -20.49627,-11.53212 7.95258,-10.66819 6.73675,-0.31563 l -2.52345,0.41041 -4.2133,-0.0948 z m -12.43003,-8.05029 -1.47256,-0.35395 1.47256,0.35395 z m -4.95949,-0.96825 c 10.59955,-3.59513 -6.8665,8.01566 0,0 z m -5.69136,-4.04648 c 2.8537,21.41855 -12.47697,-11.9108 0,0 z m 0.1726,-0.98696 0.0445,-0.23733 -0.0445,0.23733 z m -6.16317,-0.45116 c 0.73181,9.81325 -4.97584,-3.05073 0,0 z m 72.52417,-0.85842 0.56815,-0.16836 -0.56815,0.16836 z m -91.64361,-1.65447 c -7.55693,21.32239 -10.87361,-12.40415 0,0 z m 13.35601,-3.35997 0.1214,-0.69294 -0.1214,0.69294 z m 15.97073,-18.44888 c -10.16737,4.16509 2.09877,-5.95624 0,0 z m -24.1157,-14.65189 0.0935,-0.97759 -0.0935,0.97759 z m -1.38962,-3.39334 -1.56479,-0.62679 -0.003,-0.001 1.56479,0.62679 0.003,10e-4 z m -33.95124,-4.78542 c -11.98924,-11.12519 9.22798,2.19359 0,0 z m -10.59057,-9.39947 c -3.59944,22.83223 -8.1376,-7.69117 0,0 z m 72.65405,-24.25467 c -23.02798,2.58148 3.31968,-8.47859 0,0 z m 25.00667,-5.6194 0.54786,-0.24605 -0.54786,0.24605 z"
         id="path4221"
         inkscape:connector-curvature="0" />
      <path
         style="fill:#162a2a"
         d="m 200.83291,1136.0452 c -52.25734,-14.6458 -74.29262,-72.7853 -80.60693,-121.6886 -3.06623,-33.83128 -4.91488,-73.06939 17.36551,-101.18946 34.17102,-22.95046 -0.37558,30.28614 4.11923,48.70993 -5.23735,63.01113 20.24903,125.54223 59.12219,174.16813 z m -65.34,-88.2544 -0.40158,-0.043 0.40158,0.043 z m -0.78857,-1.1979 -0.15632,-1.4967 0.15632,1.4967 z m -2.45143,-3.1842 c 5.5175,-24.9667 -26.57048,4.6862 0,0 z m -23.29316,-58.75293 c 2.81213,17.86033 6.53087,-9.87216 0,0 z m 247.03317,140.78143 c -12.64834,-30.2376 26.44172,-4.0818 10.69679,4.4775 -3.84983,-0.7344 -7.31576,-2.6015 -10.69679,-4.4775 z m 148.41117,-0.4294 c -14.09148,0.7089 5.67001,-4.8073 0,0 z m -111.22832,-0.3699 c -36.42347,-36.0719 -46.59869,-90.7031 -48.24468,-140.09211 0.34034,-31.97734 5.78155,-75.84799 41.10815,-87.50522 26.12614,-7.51632 59.15453,7.64897 50.17166,38.81553 -3.90455,38.09274 -31.44571,67.7704 -42.43753,103.2681 11.8252,25.2194 60.62393,2.9583 76.20442,-13.2165 34.03958,-34.49372 22.87804,-86.65221 14.19207,-128.95546 -6.87608,-33.00767 -14.15766,-77.28832 18.60989,-99.33474 29.33908,-17.67637 74.35221,-29.75987 102.07364,-2.9661 28.3098,34.26419 20.99181,83.16608 14.50155,123.76398 -11.43446,51.74363 -27.33174,106.06272 -63.71783,146.08922 -43.24582,41.9186 -105.59437,50.9321 -162.46134,60.1333 z m 31.75715,-18.0771 -0.4325,0.01 0.4325,-0.01 z m -48.285,-29.0868 c 32.35707,-20.2894 -23.2312,-29.9196 -12.90026,-6.1558 3.8062,2.9867 8.3675,4.671 12.90026,6.1558 z m 110.72069,-13.2946 c -13.27041,-1.3166 11.18067,9.2868 0,0 z m 5.25614,-0.825 c -7.93138,2.2187 8.75332,7.5688 0,0 z m 36.23107,-16.4641 c -14.4958,19.6602 17.23302,-0.3292 0,0 z m -161.32217,-33.4925 c 21.74861,2.6479 -0.1414,-11.3973 -5.02182,-3.6546 l 5.02182,3.6546 z m 183.74238,-28.7642 c 32.37306,2.94754 -20.35655,-15.64523 0,0 z m 3.58173,-18.92085 c 9.7269,-21.64685 -16.56968,8.9183 0,0 z m -13.73483,-14.00859 c 5.45383,-23.29403 -20.03804,11.31767 0,0 z m -167.53692,-2.1351 c 35.16589,-24.54861 -37.73351,-7.90889 0,0 z M 556.11452,933.8369 c 14.31992,-13.08513 -16.81943,1.38053 0,0 z m -31.0034,-9.15794 c 17.75094,-15.13975 -9.82223,-8.15622 -6.66487,1.19628 l 2.5535,-0.17865 4.11137,-1.01763 z m -133.88507,-2.61507 c 30.01526,-19.83345 -13.97512,-29.27922 -16.98557,-6.62353 4.03917,5.00785 11.17783,5.40981 16.98557,6.62353 z m 85.70137,-0.10158 c -6.34648,16.60745 12.95611,-4.6306 0,0 z m -58.03993,-9.64872 c 19.1719,-11.70716 -18.32445,-1.43167 0,0 z m 55.81259,-12.28237 c 10.79994,17.189 11.41062,-1.86133 0.22213,-4.7066 l -0.22213,4.7066 z m 31.46362,-19.79899 c 7.35693,-19.61989 -17.26758,9.46917 0,0 z M 215.43372,1120.9433 c -14.36328,7.0568 -2.65431,-8.6901 2.28415,-3.6191 l -2.28415,3.6191 z m 246.7416,-87.6078 c -24.58988,19.586 2.6512,-22.1326 0,0 z m 3.91761,-46.77473 0.20577,-1.0805 -0.20577,1.0805 z m -18.9,-4.86 0.0905,-0.74517 -0.0905,0.74517 z m -344.48269,-25.035 c -17.335258,15.95406 3.81345,-13.51782 0,0 z m 26.84267,-44.19675 c -32.724743,-7.29088 -24.17872,-55.90383 9.3614,-38.23954 11.47533,11.90657 -1.88614,28.16598 -9.3614,38.23954 z m 25.16127,-23.80166 c -5.8761,-12.94242 6.3901,-3.76545 2.69325,1.87033 l -2.69325,-1.87033 z m 0.84873,-9.92447 c -7.01441,21.24843 -7.27293,-8.58726 0,0 z m -10.86131,-2.51028 c -7.59233,-3.24059 6.01969,-0.30054 0,0 z m 189.96132,-8.69657 c -35.25746,2.88735 1.33037,-29.94975 6.99192,-9.80709 -1.53583,3.78603 -4.2626,6.85925 -6.99192,9.80709 z m 134.28,-12.03829 c -4.31888,-34.35019 -43.51529,-44.05934 -72.02393,-49.57077 -29.21531,-6.66443 -60.75939,-4.93491 -88.24707,-17.76448 -17.75805,-25.69744 22.56806,-29.38592 39.33635,-18.81712 48.69235,10.7957 108.30055,31.19867 120.93465,86.15237 z M 337.52511,807.2404 c 19.78509,-19.58776 -21.68372,-2.87062 -4.73651,0.62554 l 4.73651,-0.62554 z m -9.25799,-2.83482 c 14.54971,-22.24042 -18.8771,1.05286 -3.93564,1.5733 l 3.93564,-1.5733 z m -33.18772,39.38709 c -36.82323,-4.89669 9.8791,-34.16313 9.52117,-10.10384 -2.41945,4.02443 -5.95658,7.14642 -9.52117,10.10384 z m 7.72011,-1.36226 c 0.12207,10.83378 -5.19173,-4.96859 0,0 z m 104.12918,-63.25164 c -34.85397,19.0724 -56.05699,-25.74931 -45.62588,-54.60348 2.02968,-31.11029 25.23556,-15.65461 23.17143,7.00044 3.07468,17.02986 1.09382,42.11886 22.45445,47.60304 z M 358.7093,702.79778 c 21.9807,-10.83286 -18.78314,-1.56521 0,0 z m -4.5655,60.143 c -20.49627,-11.53212 7.95258,-10.66819 6.73675,-0.31563 l -2.52345,0.41041 -4.2133,-0.0948 z m 43.45272,-15.36156 0.56815,-0.16836 -0.56815,0.16836 z M 335.27965,724.1159 c -10.16737,4.16509 2.09877,-5.95624 0,0 z m -24.1157,-14.65189 0.0935,-0.97759 -0.0935,0.97759 z m -46.24272,-18.11823 c 1.95107,17.76757 -11.09361,-7.46467 0,0 z m 72.97512,-23.69976 -0.71607,-0.10167 0.71607,0.10167 z m 24.99689,-5.63431 0.54786,-0.24605 -0.54786,0.24605 z"
         id="path4219"
         inkscape:connector-curvature="0" />
    </g>
  </g>
</svg>
